<svg xmlns="http://www.w3.org/2000/svg" xmlns:xlink="http://www.w3.org/1999/xlink" width="88" height="31" viewBox="0 0 88 31">
	<defs>
		<linearGradient id="gradient-fill" x1="43.671" y1="0.188" x2="44.204" y2="30.688" gradientUnits="userSpaceOnUse">
			<stop id="stop4257" offset="0" style="stop-color:rgb(255, 255, 255); stop-opacity:1"/>
			<stop id="stop4259" offset="1" style="stop-color:rgb(235, 235, 235); stop-opacity:1"/>
		</linearGradient>
		<linearGradient id="gradient-stroke" x1="43.671" y1="0.188" x2="44.204" y2="30.688" gradientUnits="userSpaceOnUse">
			<stop id="stop4220" offset="0" style="stop-color:rgb(200, 200, 200); stop-opacity:1"/>
			<stop id="stop4222" offset="1" style="stop-color:rgb(120, 120, 120); stop-opacity:1"/>
		</linearGradient>
		<linearGradient id="gradient" x1="4" x2="31" y1="28" y2="3" gradientUnits="userSpaceOnUse">
			<stop offset="0%" stop-color="#0a00b2"/>
			<stop offset="50%" stop-color="#ff0000"/>
			<stop offset="100%" stop-color="#fffc00"/>
		</linearGradient>
		<style>
			.button {
				fill: url(#gradient-fill);
				stroke-width: 0.5;
				stroke: url(#gradient-stroke);
			}
		</style>
	</defs>
	<path id="button" class="button" d="M4.96,0.2H82.9a4.78,4.78,0,0,1,4.78,4.78V25.92A4.78,4.78,0,0,1,82.9,30.7H4.96A4.78,4.78,0,0,1,.18,25.92V4.98A4.78,4.78,0,0,1,4.96.2Z" />
	<g transform="matrix(2.1312318,0,0,2.1312318,8.8224261,6.9892228)" fill="#333333" aria-label="Patch demo" id="g189">
		<path d="m 11.7,2.6 q 0.374,0 0.649,0.123 0.279,0.123 0.427,0.353 0.148,0.23 0.148,0.546 0,0.312 -0.148,0.546 -0.148,0.23 -0.427,0.353 -0.275,0.123 -0.649,0.123 h -0.649 v 0.829 h -0.534 v -2.87 z m -0.0246,1.59 q 0.349,0 0.53,-0.148 0.181,-0.148 0.181,-0.423 0,-0.275 -0.181,-0.423 -0.181,-0.148 -0.53,-0.148 h -0.624 v 1.14 z" />
		<path d="m 14.1,3.26 q 0.485,0 0.739,0.234 0.259,0.23 0.259,0.698 v 1.29 H 14.613 V 5.215 q -0.0944,0.144 -0.271,0.222 -0.172,0.0739 -0.419,0.0739 -0.246,0 -0.431,-0.0821 -0.185,-0.0862 -0.287,-0.234 -0.0985,-0.152 -0.0985,-0.341 0,-0.296 0.218,-0.472 0.222,-0.181 0.694,-0.181 h 0.567 V 4.168 q 0,-0.23 -0.14,-0.353 -0.135,-0.123 -0.406,-0.123 -0.185,0 -0.365,0.0575 -0.177,0.0575 -0.3,0.16 l -0.201,-0.374 q 0.172,-0.131 0.415,-0.201 0.242,-0.0698 0.513,-0.0698 z m -0.0698,1.87 q 0.193,0 0.341,-0.0862 0.152,-0.0903 0.214,-0.255 v -0.255 h -0.53 q -0.443,0 -0.443,0.292 0,0.14 0.111,0.222 0.111,0.0821 0.308,0.0821 z" />
		<path d="m 17,5.36 q -0.0903,0.0739 -0.222,0.111 -0.127,0.037 -0.271,0.037 -0.361,0 -0.558,-0.189 Q 15.752,5.13 15.752,4.769 V 3.709 H 15.391 V 3.298 h 0.361 V 2.797 h 0.513 v 0.501 h 0.587 v 0.411 h -0.587 v 1.04 q 0,0.16 0.078,0.246 0.078,0.0821 0.226,0.0821 0.172,0 0.287,-0.0903 z" />
		<path d="m 18.3,5.51 q -0.341,0 -0.612,-0.144 -0.271,-0.144 -0.423,-0.398 -0.152,-0.259 -0.152,-0.583 0,-0.324 0.152,-0.579 0.152,-0.255 0.419,-0.398 0.271,-0.144 0.616,-0.144 0.324,0 0.567,0.131 0.246,0.131 0.37,0.378 l -0.394,0.23 Q 18.7486,3.851 18.605,3.777 18.465,3.699 18.297,3.699 q -0.287,0 -0.476,0.189 -0.189,0.185 -0.189,0.497 0,0.312 0.185,0.501 0.189,0.185 0.48,0.185 0.168,0 0.308,-0.0739 0.144,-0.078 0.238,-0.23 l 0.394,0.23 q -0.127,0.246 -0.374,0.382 -0.242,0.131 -0.563,0.131 z" />
		<path d="m 20.8,3.26 q 0.415,0 0.665,0.242 0.25,0.242 0.25,0.719 v 1.26 h -0.513 v -1.19 q 0,-0.287 -0.135,-0.431 -0.135,-0.148 -0.386,-0.148 -0.283,0 -0.448,0.172 -0.164,0.168 -0.164,0.489 v 1.11 h -0.513 v -3.05 h 0.513 v 1.11 Q 20.196,3.408 20.381,3.338 20.57,3.2641 20.8,3.2641 Z" />
		<path d="M 25.4,2.43 V 5.48 H 24.907 V 5.197 q -0.127,0.156 -0.316,0.234 -0.185,0.078 -0.411,0.078 -0.316,0 -0.571,-0.14 -0.25,-0.14 -0.394,-0.394 -0.144,-0.259 -0.144,-0.591 0,-0.333 0.144,-0.587 0.144,-0.255 0.394,-0.394 0.255,-0.14 0.571,-0.14 0.218,0 0.398,0.0739 0.18,0.0739 0.308,0.222 v -1.13 z m -1.16,2.64 q 0.185,0 0.333,-0.0821 0.148,-0.0862 0.234,-0.242 0.0862,-0.156 0.0862,-0.361 0,-0.205 -0.0862,-0.361 -0.0862,-0.156 -0.234,-0.238 -0.148,-0.0862 -0.333,-0.0862 -0.185,0 -0.333,0.0862 -0.148,0.0821 -0.234,0.238 -0.0862,0.156 -0.0862,0.361 0,0.205 0.0862,0.361 0.0862,0.156 0.234,0.242 Q 24.055,5.07 24.24,5.07 Z" />
		<path d="m 28,4.39 q 0,0.0534 -0.0082,0.152 h -1.72 q 0.0452,0.242 0.234,0.386 0.193,0.14 0.476,0.14 0.361,0 0.595,-0.238 l 0.275,0.316 q -0.148,0.177 -0.374,0.267 -0.226,0.0903 -0.509,0.0903 -0.361,0 -0.636,-0.144 -0.275,-0.144 -0.427,-0.398 -0.148,-0.259 -0.148,-0.583 0,-0.32 0.144,-0.575 0.148,-0.259 0.406,-0.402 0.259,-0.144 0.583,-0.144 0.32,0 0.571,0.144 0.255,0.14 0.394,0.398 0.144,0.255 0.144,0.591 z M 26.89,3.667 q -0.246,0 -0.419,0.148 -0.168,0.144 -0.205,0.386 h 1.24 Q 27.4732,3.963 27.305,3.815 27.137,3.667 26.886,3.667 Z" />
		<path d="m 31.2,3.26 q 0.415,0 0.657,0.242 0.242,0.238 0.242,0.719 v 1.26 h -0.513 v -1.19 q 0,-0.287 -0.127,-0.431 -0.127,-0.148 -0.365,-0.148 -0.259,0 -0.415,0.172 -0.156,0.168 -0.156,0.485 v 1.11 H 30.01 v -1.19 q 0,-0.287 -0.127,-0.431 -0.127,-0.148 -0.365,-0.148 -0.263,0 -0.419,0.168 -0.152,0.168 -0.152,0.489 v 1.11 h -0.513 v -2.19 h 0.489 v 0.279 q 0.123,-0.148 0.308,-0.226 0.185,-0.078 0.411,-0.078 0.246,0 0.435,0.0944 0.193,0.0903 0.304,0.271 0.135,-0.172 0.349,-0.267 0.214,-0.0985 0.472,-0.0985 z" />
		<path d="m 33.6,5.51 q -0.333,0 -0.599,-0.144 -0.267,-0.144 -0.419,-0.398 -0.148,-0.259 -0.148,-0.583 0,-0.324 0.148,-0.579 0.152,-0.255 0.419,-0.398 0.267,-0.144 0.599,-0.144 0.337,0 0.604,0.144 0.267,0.144 0.415,0.398 0.152,0.255 0.152,0.579 0,0.324 -0.152,0.583 Q 34.471,5.223 34.204,5.366 33.937,5.51 33.6,5.51 Z m 0,-0.439 q 0.283,0 0.468,-0.189 0.185,-0.189 0.185,-0.497 0,-0.308 -0.185,-0.497 -0.185,-0.189 -0.468,-0.189 -0.283,0 -0.468,0.189 -0.181,0.189 -0.181,0.497 0,0.308 0.181,0.497 0.185,0.189 0.468,0.189 z" />
	</g>
	<g id="g247" transform="matrix(0.64830075,0,0,0.64830075,4.839859,3.8637808)">
		<g fill-rule="evenodd" id="g213">
			<rect transform="rotate(-45)" x="-20.429001" y="18.447001" width="40.863998" height="13.621" rx="6.8106999" fill="#006699" id="rect209" />
			<path d="m 3.4117,3.4157 c -2.668,2.668 -2.668,6.9638 -1e-6,9.6318 l 3.2026,3.2026 9.6318,-9.6318 -3.2026,-3.2026 c -2.668,-2.668 -6.9638,-2.668 -9.631799,0 z m 16.061,25.693 3.2027,3.2027 c 2.668,2.668 6.9638,2.668 9.6318,0 2.668,-2.668 2.668,-6.9638 0,-9.6318 l -3.2027,-3.2027 z" fill="#339966" />
		</g>
		<path d="m 19.557,18.036 -2.7141,1.567 v -3.134 z" color="#000000" fill="#990000" stroke="#ffffff" stroke-linejoin="round" stroke-width="0.4961" />
		<g fill="#ffffff" id="g221">
			<path d="m 12.178,16.221 v 3.5781 h 1.1017 v -0.51987 h -0.53899 v -2.5368 h 0.53899 v -0.52142 z" />
			<path d="m 13.859,16.221 v 3.5781 h 1.1017 v -0.51987 h -0.53899 v -2.5368 h 0.53899 v -0.52142 z" />
		</g>
		<g transform="matrix(-1,0,0,1,35.725,0)" fill="#ffffff" id="g227">
			<path d="m 12.178,16.221 v 3.5781 h 1.1017 v -0.51987 h -0.53899 v -2.5368 h 0.53899 v -0.52142 z" />
			<path d="m 13.859,16.221 v 3.5781 h 1.1017 v -0.51987 h -0.53899 v -2.5368 h 0.53899 v -0.52142 z" />
		</g>
	</g>
</svg>
